<svg xmlns="http://www.w3.org/2000/svg" xmlns:xlink="http://www.w3.org/1999/xlink" width="500" zoomAndPan="magnify" viewBox="0 0 375 374.999991" height="500" preserveAspectRatio="xMidYMid meet" version="1.0"><defs><clipPath id="3b1651eb51"><path d="M 162 125 L 247.671875 125 L 247.671875 250.019531 L 162 250.019531 Z M 162 125 " clip-rule="nonzero"/></clipPath><clipPath id="6e4f5d13c4"><path d="M 127.671875 170 L 142 170 L 142 211 L 127.671875 211 Z M 127.671875 170 " clip-rule="nonzero"/></clipPath></defs><rect x="-37.5" width="450" fill="#ffffff" y="-37.499999" height="449.999989" fill-opacity="1"/><rect x="-37.5" width="450" fill="#ffffff" y="-37.499999" height="449.999989" fill-opacity="1"/><g clip-path="url(#3b1651eb51)"><path fill="#050a30" d="M 186.199219 151.886719 C 186.59375 152.277344 187.082031 152.472656 187.574219 152.472656 L 199.332031 152.472656 C 199.820312 152.472656 200.3125 152.277344 200.703125 151.886719 L 203.9375 148.667969 C 204.917969 149.15625 205.996094 149.449219 207.171875 149.449219 C 210.992188 149.449219 214.03125 146.425781 214.03125 142.621094 C 214.03125 138.816406 210.992188 135.792969 207.171875 135.792969 C 203.347656 135.792969 200.3125 138.816406 200.3125 142.621094 C 200.3125 143.792969 200.605469 144.863281 201.09375 145.839844 L 198.546875 148.570312 L 188.355469 148.570312 L 181.695312 141.9375 L 181.695312 129.0625 L 187.375 129.0625 C 187.574219 129.0625 187.769531 129.160156 187.964844 129.0625 C 205.40625 128.378906 223.339844 136.28125 232.058594 152.472656 L 225.496094 152.472656 C 224.613281 149.644531 222.066406 147.59375 218.929688 147.59375 C 215.109375 147.59375 212.070312 150.621094 212.070312 154.425781 C 212.070312 157.546875 214.128906 160.082031 216.96875 160.960938 L 216.96875 178.808594 L 202.269531 178.808594 C 201.195312 178.808594 200.3125 179.6875 200.3125 180.761719 L 200.3125 191.492188 L 196.390625 191.492188 L 196.390625 179.785156 C 196.390625 179.199219 196.097656 178.714844 195.707031 178.324219 L 189.53125 173.054688 L 189.53125 160.277344 L 197.566406 160.277344 L 200.214844 162.910156 C 199.722656 163.886719 199.429688 164.957031 199.429688 166.128906 C 199.429688 169.933594 202.46875 172.957031 206.289062 172.957031 C 210.109375 172.957031 213.148438 169.933594 213.148438 166.128906 C 213.148438 162.324219 210.109375 159.300781 206.289062 159.300781 C 205.113281 159.300781 204.035156 159.59375 203.054688 160.082031 L 199.820312 156.863281 C 199.332031 156.570312 198.839844 156.375 198.351562 156.375 L 187.574219 156.375 C 186.496094 156.375 185.613281 157.253906 185.613281 158.324219 L 185.613281 173.933594 C 185.613281 174.519531 185.90625 175.007812 186.300781 175.394531 L 192.472656 180.664062 L 192.472656 191.492188 L 184.632812 191.492188 C 184.144531 191.492188 183.652344 191.6875 183.261719 192.078125 L 167.582031 207.683594 C 167.191406 208.074219 166.996094 208.5625 166.996094 209.050781 L 166.996094 224.949219 C 164.152344 225.828125 162.097656 228.363281 162.097656 231.484375 C 162.097656 235.289062 165.132812 238.3125 168.953125 238.3125 C 172.777344 238.3125 175.8125 235.289062 175.8125 231.484375 C 175.8125 228.363281 173.757812 225.828125 170.914062 224.949219 L 170.914062 209.832031 L 185.417969 195.394531 L 220.890625 195.394531 C 221.671875 195.394531 222.359375 195.003906 222.652344 194.320312 L 228.53125 182.613281 C 228.628906 182.320312 228.726562 182.03125 228.726562 181.738281 L 228.726562 174.910156 L 237.351562 174.910156 L 237.351562 182.90625 L 234.804688 188.46875 C 234.609375 188.957031 234.609375 189.441406 234.707031 189.929688 L 243.328125 212.855469 C 243.328125 212.953125 243.328125 213.050781 243.328125 213.148438 C 243.230469 213.246094 243.230469 213.246094 243.132812 213.246094 L 234.707031 213.246094 C 234.117188 213.246094 233.53125 213.539062 233.136719 214.023438 C 232.746094 214.511719 232.648438 215.195312 232.84375 215.78125 L 235.195312 222.609375 L 230.6875 224.167969 C 230.101562 224.363281 229.609375 224.851562 229.414062 225.4375 C 229.21875 226.023438 229.316406 226.707031 229.707031 227.195312 L 232.648438 231.191406 L 230.101562 233.144531 C 229.609375 233.535156 229.316406 234.121094 229.316406 234.703125 L 229.316406 239.679688 C 229.316406 241.921875 228.140625 244.070312 226.179688 245.140625 C 225.296875 245.726562 224.222656 246.019531 223.144531 246.019531 C 215.011719 246.117188 183.652344 235.875 183.652344 218.804688 L 183.652344 214.707031 C 183.652344 213.632812 182.769531 212.757812 181.695312 212.757812 C 180.617188 212.757812 179.734375 213.632812 179.734375 214.707031 L 179.734375 218.804688 C 179.734375 239.582031 214.910156 250.019531 223.242188 250.019531 C 225.003906 250.019531 226.769531 249.53125 228.238281 248.652344 C 231.375 246.800781 233.234375 243.484375 233.234375 239.777344 L 233.234375 235.679688 L 236.46875 233.144531 C 237.253906 232.460938 237.449219 231.289062 236.863281 230.511719 L 234.410156 227.097656 L 238.332031 225.730469 C 239.3125 225.339844 239.898438 224.265625 239.507812 223.292969 L 237.449219 217.144531 L 243.132812 217.144531 C 244.503906 217.144531 245.777344 216.464844 246.5625 215.390625 C 247.347656 214.21875 247.542969 212.757812 247.050781 211.488281 L 238.722656 189.34375 L 241.074219 184.175781 C 241.171875 183.882812 241.269531 183.6875 241.269531 183.394531 L 241.269531 172.664062 C 240.683594 157.933594 234.609375 145.546875 223.828125 136.769531 C 214.03125 128.769531 201.390625 124.769531 187.964844 125.160156 C 187.867188 125.160156 187.671875 125.160156 187.574219 125.160156 L 179.734375 125.160156 C 178.65625 125.160156 177.773438 126.039062 177.773438 127.109375 L 177.773438 142.71875 C 177.773438 143.207031 177.96875 143.695312 178.363281 144.082031 Z M 207.171875 139.792969 C 208.835938 139.792969 210.109375 141.058594 210.109375 142.71875 C 210.109375 144.375 208.835938 145.644531 207.171875 145.644531 C 205.503906 145.644531 204.230469 144.375 204.230469 142.71875 C 204.230469 141.058594 205.503906 139.792969 207.171875 139.792969 Z M 206.191406 163.203125 C 207.855469 163.203125 209.128906 164.472656 209.128906 166.128906 C 209.128906 167.789062 207.855469 169.054688 206.191406 169.054688 C 204.523438 169.054688 203.25 167.789062 203.25 166.128906 C 203.25 164.472656 204.523438 163.203125 206.191406 163.203125 Z M 171.894531 231.484375 C 171.894531 233.144531 170.621094 234.414062 168.953125 234.414062 C 167.289062 234.414062 166.015625 233.144531 166.015625 231.484375 C 166.015625 229.828125 167.289062 228.558594 168.953125 228.558594 C 170.621094 228.558594 171.894531 229.828125 171.894531 231.484375 Z M 215.988281 154.425781 C 215.988281 152.765625 217.261719 151.496094 218.929688 151.496094 C 220.59375 151.496094 221.867188 152.765625 221.867188 154.425781 C 221.867188 156.082031 220.59375 157.351562 218.929688 157.351562 C 217.261719 157.351562 215.988281 156.082031 215.988281 154.425781 Z M 237.253906 171.007812 L 226.769531 171.007812 C 225.691406 171.007812 224.808594 171.882812 224.808594 172.957031 L 224.808594 181.25 L 219.714844 191.492188 L 204.230469 191.492188 L 204.230469 182.710938 L 218.929688 182.710938 C 220.007812 182.710938 220.890625 181.835938 220.890625 180.761719 L 220.890625 160.960938 C 223.144531 160.277344 224.808594 158.519531 225.496094 156.375 L 233.921875 156.375 C 235.683594 160.765625 236.863281 165.640625 237.253906 171.007812 Z M 237.253906 171.007812 " fill-opacity="1" fill-rule="nonzero"/></g><path fill="#050a30" d="M 133.679688 138.523438 L 133.679688 155.398438 C 133.679688 155.984375 133.972656 156.570312 134.363281 156.960938 L 145.144531 165.542969 C 145.242188 165.640625 145.339844 165.640625 145.4375 165.738281 L 145.4375 186.613281 C 145.4375 187.101562 145.632812 187.492188 145.925781 187.882812 L 151.316406 194.125 L 151.316406 210.316406 C 148.476562 211.195312 146.417969 213.730469 146.417969 216.855469 C 146.417969 220.65625 149.457031 223.683594 153.277344 223.683594 C 157.097656 223.683594 160.136719 220.65625 160.136719 216.855469 C 160.136719 213.730469 158.078125 211.195312 155.238281 210.316406 L 155.238281 193.441406 C 155.238281 192.953125 155.039062 192.566406 154.746094 192.175781 L 149.355469 185.929688 L 149.355469 143.109375 L 159.15625 148.667969 L 159.15625 152.667969 C 156.3125 153.546875 154.257812 156.082031 154.257812 159.203125 C 154.257812 163.007812 157.292969 166.03125 161.117188 166.03125 C 164.9375 166.03125 167.976562 163.007812 167.976562 159.203125 C 167.976562 156.082031 165.917969 153.546875 163.074219 152.667969 L 163.074219 147.59375 C 163.074219 146.914062 162.683594 146.230469 162.097656 145.9375 L 148.378906 138.132812 C 147.789062 137.742188 147.003906 137.742188 146.417969 138.132812 C 145.828125 138.523438 145.4375 139.109375 145.4375 139.792969 L 145.4375 160.765625 L 137.597656 154.425781 L 137.597656 138.523438 C 140.441406 137.644531 142.496094 135.109375 142.496094 131.988281 C 142.496094 128.183594 139.460938 125.160156 135.640625 125.160156 C 131.816406 125.160156 128.78125 128.183594 128.78125 131.988281 C 128.78125 135.109375 130.835938 137.644531 133.679688 138.523438 Z M 156.214844 216.855469 C 156.214844 218.511719 154.941406 219.78125 153.277344 219.78125 C 151.609375 219.78125 150.335938 218.511719 150.335938 216.855469 C 150.335938 215.195312 151.609375 213.925781 153.277344 213.925781 C 154.941406 213.925781 156.214844 215.195312 156.214844 216.855469 Z M 164.054688 159.300781 C 164.054688 160.960938 162.78125 162.226562 161.117188 162.226562 C 159.449219 162.226562 158.175781 160.960938 158.175781 159.300781 C 158.175781 157.644531 159.449219 156.375 161.117188 156.375 C 162.78125 156.375 164.054688 157.644531 164.054688 159.300781 Z M 135.640625 129.0625 C 137.304688 129.0625 138.578125 130.328125 138.578125 131.988281 C 138.578125 133.644531 137.304688 134.914062 135.640625 134.914062 C 133.972656 134.914062 132.699219 133.644531 132.699219 131.988281 C 132.699219 130.328125 133.972656 129.0625 135.640625 129.0625 Z M 135.640625 129.0625 " fill-opacity="1" fill-rule="nonzero"/><path fill="#050a30" d="M 177.773438 156.179688 L 177.773438 184.761719 L 163.074219 199.394531 L 163.074219 185.347656 C 165.917969 184.46875 167.976562 181.933594 167.976562 178.808594 C 167.976562 175.007812 164.9375 171.980469 161.117188 171.980469 C 157.292969 171.980469 154.257812 175.007812 154.257812 178.808594 C 154.257812 181.933594 156.3125 184.46875 159.15625 185.347656 L 159.15625 204.171875 C 159.15625 204.953125 159.644531 205.636719 160.332031 205.929688 C 160.625 206.125 160.820312 206.125 161.117188 206.125 C 161.605469 206.125 162.097656 205.929688 162.488281 205.539062 L 181.105469 187.003906 C 181.496094 186.613281 181.695312 186.125 181.695312 185.640625 L 181.695312 155.398438 C 181.695312 154.910156 181.496094 154.425781 181.105469 154.035156 L 173.855469 146.816406 L 173.855469 131.988281 C 173.855469 130.914062 172.972656 130.039062 171.894531 130.039062 C 170.816406 130.039062 169.933594 130.914062 169.933594 131.988281 L 169.933594 147.59375 C 169.933594 148.082031 170.132812 148.570312 170.523438 148.960938 Z M 161.117188 181.738281 C 159.449219 181.738281 158.175781 180.46875 158.175781 178.808594 C 158.175781 177.152344 159.449219 175.882812 161.117188 175.882812 C 162.78125 175.882812 164.054688 177.152344 164.054688 178.808594 C 164.054688 180.46875 162.78125 181.738281 161.117188 181.738281 Z M 161.117188 181.738281 " fill-opacity="1" fill-rule="nonzero"/><g clip-path="url(#6e4f5d13c4)"><path fill="#050a30" d="M 127.800781 203.195312 C 127.800781 207 130.835938 210.027344 134.660156 210.027344 C 138.480469 210.027344 141.519531 207 141.519531 203.195312 C 141.519531 200.074219 139.460938 197.539062 136.617188 196.660156 L 136.617188 183.394531 C 139.460938 182.515625 141.519531 179.980469 141.519531 176.859375 C 141.519531 173.054688 138.480469 170.03125 134.660156 170.03125 C 130.835938 170.03125 127.800781 173.054688 127.800781 176.859375 C 127.800781 179.980469 129.855469 182.515625 132.699219 183.394531 L 132.699219 196.660156 C 129.855469 197.539062 127.800781 200.074219 127.800781 203.195312 Z M 131.71875 176.859375 C 131.71875 175.203125 132.992188 173.933594 134.660156 173.933594 C 136.324219 173.933594 137.597656 175.203125 137.597656 176.859375 C 137.597656 178.519531 136.324219 179.785156 134.660156 179.785156 C 132.992188 179.785156 131.71875 178.519531 131.71875 176.859375 Z M 134.660156 200.269531 C 136.324219 200.269531 137.597656 201.539062 137.597656 203.195312 C 137.597656 204.855469 136.324219 206.125 134.660156 206.125 C 132.992188 206.125 131.71875 204.855469 131.71875 203.195312 C 131.71875 201.539062 132.992188 200.269531 134.660156 200.269531 Z M 134.660156 200.269531 " fill-opacity="1" fill-rule="nonzero"/></g></svg>