<svg xmlns="http://www.w3.org/2000/svg" xmlns:xlink="http://www.w3.org/1999/xlink" width="6000" zoomAndPan="magnify" viewBox="0 0 4500 1499.999933" height="2000" preserveAspectRatio="xMidYMid meet" version="1.0"><defs><g/><clipPath id="7dfc2f1676"><path d="M 480 153 L 1298 153 L 1298 1356.75 L 480 1356.75 Z M 480 153 " clip-rule="nonzero"/></clipPath></defs><g clip-path="url(#7dfc2f1676)"><path fill="#050a30" d="M 711.523438 411.273438 C 715.285156 415.035156 719.984375 416.914062 724.683594 416.914062 L 837.496094 416.914062 C 842.195312 416.914062 846.898438 415.035156 850.65625 411.273438 L 881.679688 380.261719 C 891.082031 384.960938 901.421875 387.777344 912.703125 387.777344 C 949.367188 387.777344 978.507812 358.644531 978.507812 321.988281 C 978.507812 285.335938 949.367188 256.203125 912.703125 256.203125 C 876.039062 256.203125 846.898438 285.335938 846.898438 321.988281 C 846.898438 333.269531 849.71875 343.605469 854.417969 353.003906 L 829.976562 379.320312 L 732.207031 379.320312 L 668.28125 315.410156 L 668.28125 191.351562 L 722.804688 191.351562 C 724.683594 191.351562 726.566406 192.292969 728.445312 191.351562 C 895.78125 184.773438 1067.816406 260.902344 1151.484375 416.914062 L 1088.5 416.914062 C 1080.039062 389.660156 1055.597656 369.921875 1025.511719 369.921875 C 988.851562 369.921875 959.707031 399.054688 959.707031 435.710938 C 959.707031 465.785156 979.449219 490.222656 1006.710938 498.679688 L 1006.710938 670.667969 L 865.699219 670.667969 C 855.355469 670.667969 846.898438 679.128906 846.898438 689.464844 L 846.898438 792.847656 L 809.292969 792.847656 L 809.292969 680.066406 C 809.292969 674.429688 806.472656 669.730469 802.710938 665.96875 L 743.488281 615.21875 L 743.488281 492.101562 L 820.574219 492.101562 L 845.957031 517.476562 C 841.257812 526.875 838.4375 537.210938 838.4375 548.492188 C 838.4375 585.144531 867.578125 614.277344 904.242188 614.277344 C 940.90625 614.277344 970.046875 585.144531 970.046875 548.492188 C 970.046875 511.835938 940.90625 482.703125 904.242188 482.703125 C 892.960938 482.703125 882.621094 485.523438 873.21875 490.222656 L 842.195312 459.207031 C 837.496094 456.386719 832.796875 454.507812 828.09375 454.507812 L 724.683594 454.507812 C 714.34375 454.507812 705.882812 462.964844 705.882812 473.304688 L 705.882812 623.675781 C 705.882812 629.316406 708.703125 634.015625 712.464844 637.773438 L 771.6875 688.527344 L 771.6875 792.847656 L 696.480469 792.847656 C 691.78125 792.847656 687.082031 794.726562 683.320312 798.488281 L 532.90625 948.859375 C 529.144531 952.621094 527.265625 957.320312 527.265625 962.019531 L 527.265625 1115.210938 C 500.003906 1123.671875 480.261719 1148.105469 480.261719 1178.179688 C 480.261719 1214.835938 509.40625 1243.96875 546.066406 1243.96875 C 582.730469 1243.96875 611.875 1214.835938 611.875 1178.179688 C 611.875 1148.105469 592.132812 1123.671875 564.871094 1115.210938 L 564.871094 969.539062 L 704.003906 830.441406 L 1044.316406 830.441406 C 1051.835938 830.441406 1058.417969 826.683594 1061.238281 820.101562 L 1117.640625 707.324219 C 1118.582031 704.503906 1119.523438 701.683594 1119.523438 698.863281 L 1119.523438 633.074219 L 1202.25 633.074219 L 1202.25 710.140625 L 1177.808594 763.714844 C 1175.929688 768.414062 1175.929688 773.113281 1176.867188 777.8125 L 1259.597656 998.671875 C 1259.597656 999.613281 1259.597656 1000.550781 1259.597656 1001.492188 C 1258.65625 1002.429688 1258.65625 1002.429688 1257.714844 1002.429688 L 1176.867188 1002.429688 C 1171.226562 1002.429688 1165.585938 1005.25 1161.828125 1009.949219 C 1158.066406 1014.648438 1157.125 1021.226562 1159.007812 1026.867188 L 1181.570312 1092.65625 L 1138.324219 1107.691406 C 1132.683594 1109.574219 1127.984375 1114.273438 1126.101562 1119.910156 C 1124.222656 1125.550781 1125.164062 1132.128906 1128.921875 1136.828125 L 1157.125 1175.363281 L 1132.683594 1194.160156 C 1127.984375 1197.917969 1125.164062 1203.554688 1125.164062 1209.195312 L 1125.164062 1257.128906 C 1125.164062 1278.742188 1113.882812 1299.417969 1095.082031 1309.757812 C 1086.621094 1315.398438 1076.277344 1318.214844 1065.9375 1318.214844 C 987.910156 1319.15625 687.082031 1220.472656 687.082031 1056.003906 L 687.082031 1016.527344 C 687.082031 1006.191406 678.621094 997.730469 668.28125 997.730469 C 657.9375 997.730469 649.476562 1006.191406 649.476562 1016.527344 L 649.476562 1056.003906 C 649.476562 1256.1875 986.96875 1356.75 1066.878906 1356.75 C 1083.800781 1356.75 1100.71875 1352.050781 1114.820312 1343.59375 C 1144.90625 1325.734375 1162.765625 1293.78125 1162.765625 1258.066406 L 1162.765625 1218.59375 L 1193.789062 1194.15625 C 1201.308594 1187.578125 1203.191406 1176.300781 1197.550781 1168.78125 L 1174.046875 1135.886719 L 1211.652344 1122.730469 C 1221.050781 1118.972656 1226.691406 1108.632812 1222.933594 1099.234375 L 1203.191406 1040.023438 L 1257.714844 1040.023438 C 1270.875 1040.023438 1283.097656 1033.445312 1290.617188 1023.109375 C 1298.140625 1011.828125 1300.019531 997.730469 1295.320312 985.515625 L 1215.410156 772.171875 L 1237.972656 722.359375 C 1238.914062 719.539062 1239.855469 717.660156 1239.855469 714.839844 L 1239.855469 611.460938 C 1234.214844 469.542969 1175.925781 350.183594 1072.519531 265.601562 C 978.507812 188.535156 857.238281 150 728.445312 153.757812 C 727.503906 153.757812 725.625 153.757812 724.683594 153.757812 L 649.476562 153.757812 C 639.136719 153.757812 630.675781 162.21875 630.675781 172.554688 L 630.675781 322.929688 C 630.675781 327.628906 632.554688 332.328125 636.316406 336.085938 Z M 912.703125 294.734375 C 928.683594 294.734375 940.90625 306.953125 940.90625 322.929688 C 940.90625 338.90625 928.683594 351.125 912.703125 351.125 C 896.722656 351.125 884.5 338.90625 884.5 322.929688 C 884.5 306.953125 896.722656 294.734375 912.703125 294.734375 Z M 903.300781 520.296875 C 919.285156 520.296875 931.503906 532.511719 931.503906 548.492188 C 931.503906 564.46875 919.285156 576.6875 903.300781 576.6875 C 887.320312 576.6875 875.097656 564.46875 875.097656 548.492188 C 875.097656 532.511719 887.320312 520.296875 903.300781 520.296875 Z M 574.269531 1178.179688 C 574.269531 1194.15625 562.050781 1206.375 546.066406 1206.375 C 530.085938 1206.375 517.867188 1194.15625 517.867188 1178.179688 C 517.867188 1162.203125 530.085938 1149.984375 546.066406 1149.984375 C 562.050781 1149.984375 574.269531 1162.203125 574.269531 1178.179688 Z M 997.3125 435.710938 C 997.3125 419.734375 1009.53125 407.515625 1025.511719 407.515625 C 1041.496094 407.515625 1053.714844 419.734375 1053.714844 435.710938 C 1053.714844 451.6875 1041.496094 463.90625 1025.511719 463.90625 C 1009.53125 463.90625 997.3125 451.6875 997.3125 435.710938 Z M 1201.308594 595.480469 L 1100.71875 595.480469 C 1090.378906 595.480469 1081.917969 603.941406 1081.917969 614.277344 L 1081.917969 694.164062 L 1033.035156 792.847656 L 884.5 792.847656 L 884.5 708.261719 L 1025.511719 708.261719 C 1035.855469 708.261719 1044.316406 699.804688 1044.316406 689.464844 L 1044.316406 498.679688 C 1065.9375 492.101562 1081.917969 475.183594 1088.5 454.507812 L 1169.347656 454.507812 C 1186.269531 496.800781 1197.550781 543.792969 1201.308594 595.480469 Z M 1201.308594 595.480469 " fill-opacity="1" fill-rule="nonzero"/></g><path fill="#050a30" d="M 207.636719 282.515625 L 207.636719 445.109375 C 207.636719 450.746094 210.457031 456.386719 214.214844 460.144531 L 317.625 542.851562 C 318.566406 543.792969 319.507812 543.792969 320.445312 544.730469 L 320.445312 745.855469 C 320.445312 750.554688 322.328125 754.316406 325.148438 758.074219 L 376.851562 818.222656 L 376.851562 974.238281 C 349.589844 982.695312 329.847656 1007.128906 329.847656 1037.207031 C 329.847656 1073.859375 358.992188 1102.992188 395.652344 1102.992188 C 432.316406 1102.992188 461.460938 1073.859375 461.460938 1037.207031 C 461.460938 1007.128906 441.71875 982.695312 414.457031 974.238281 L 414.457031 811.644531 C 414.457031 806.945312 412.574219 803.1875 409.753906 799.425781 L 358.050781 739.277344 L 358.050781 326.6875 L 452.058594 380.261719 L 452.058594 418.792969 C 424.796875 427.25 405.054688 451.6875 405.054688 481.761719 C 405.054688 518.414062 434.199219 547.550781 470.859375 547.550781 C 507.523438 547.550781 536.667969 518.414062 536.667969 481.761719 C 536.667969 451.6875 516.925781 427.25 489.664062 418.792969 L 489.664062 369.921875 C 489.664062 363.34375 485.902344 356.765625 480.261719 353.945312 L 348.648438 278.757812 C 343.007812 275 335.488281 275 329.847656 278.757812 C 324.207031 282.515625 320.445312 288.15625 320.445312 294.734375 L 320.445312 496.800781 L 245.238281 435.710938 L 245.238281 282.515625 C 272.503906 274.058594 292.242188 249.621094 292.242188 219.546875 C 292.242188 182.894531 263.101562 153.757812 226.4375 153.757812 C 189.773438 153.757812 160.632812 182.894531 160.632812 219.546875 C 160.632812 249.621094 180.375 274.058594 207.636719 282.515625 Z M 423.855469 1037.207031 C 423.855469 1053.183594 411.636719 1065.402344 395.652344 1065.402344 C 379.671875 1065.402344 367.449219 1053.183594 367.449219 1037.207031 C 367.449219 1021.226562 379.671875 1009.011719 395.652344 1009.011719 C 411.636719 1009.011719 423.855469 1021.226562 423.855469 1037.207031 Z M 499.0625 482.703125 C 499.0625 498.679688 486.84375 510.898438 470.859375 510.898438 C 454.878906 510.898438 442.660156 498.679688 442.660156 482.703125 C 442.660156 466.726562 454.878906 454.507812 470.859375 454.507812 C 486.84375 454.507812 499.0625 466.726562 499.0625 482.703125 Z M 226.4375 191.351562 C 242.417969 191.351562 254.640625 203.570312 254.640625 219.546875 C 254.640625 235.523438 242.417969 247.742188 226.4375 247.742188 C 210.457031 247.742188 198.234375 235.523438 198.234375 219.546875 C 198.234375 203.570312 210.457031 191.351562 226.4375 191.351562 Z M 226.4375 191.351562 " fill-opacity="1" fill-rule="nonzero"/><path fill="#050a30" d="M 630.675781 452.628906 L 630.675781 728 L 489.664062 868.976562 L 489.664062 733.636719 C 516.925781 725.179688 536.667969 700.742188 536.667969 670.667969 C 536.667969 634.015625 507.523438 604.878906 470.859375 604.878906 C 434.199219 604.878906 405.054688 634.015625 405.054688 670.667969 C 405.054688 700.742188 424.796875 725.179688 452.058594 733.636719 L 452.058594 915.027344 C 452.058594 922.546875 456.757812 929.125 463.339844 931.945312 C 466.160156 933.824219 468.039062 933.824219 470.859375 933.824219 C 475.5625 933.824219 480.261719 931.945312 484.023438 928.183594 L 662.640625 749.617188 C 666.398438 745.855469 668.28125 741.15625 668.28125 736.457031 L 668.28125 445.109375 C 668.28125 440.410156 666.398438 435.710938 662.640625 431.949219 L 593.074219 362.402344 L 593.074219 219.546875 C 593.074219 209.210938 584.613281 200.75 574.269531 200.75 C 563.929688 200.75 555.46875 209.210938 555.46875 219.546875 L 555.46875 369.921875 C 555.46875 374.621094 557.347656 379.320312 561.109375 383.078125 Z M 470.859375 698.863281 C 454.878906 698.863281 442.660156 686.648438 442.660156 670.667969 C 442.660156 654.691406 454.878906 642.472656 470.859375 642.472656 C 486.84375 642.472656 499.0625 654.691406 499.0625 670.667969 C 499.0625 686.648438 486.84375 698.863281 470.859375 698.863281 Z M 470.859375 698.863281 " fill-opacity="1" fill-rule="nonzero"/><path fill="#050a30" d="M 151.230469 905.628906 C 151.230469 942.28125 180.375 971.417969 217.035156 971.417969 C 253.699219 971.417969 282.84375 942.28125 282.84375 905.628906 C 282.84375 875.554688 263.101562 851.117188 235.839844 842.660156 L 235.839844 714.839844 C 263.101562 706.382812 282.84375 681.949219 282.84375 651.871094 C 282.84375 615.21875 253.699219 586.085938 217.035156 586.085938 C 180.375 586.085938 151.230469 615.21875 151.230469 651.871094 C 151.230469 681.949219 170.972656 706.382812 198.234375 714.839844 L 198.234375 842.660156 C 170.972656 851.117188 151.230469 875.554688 151.230469 905.628906 Z M 188.835938 651.871094 C 188.835938 635.894531 201.054688 623.675781 217.035156 623.675781 C 233.019531 623.675781 245.238281 635.894531 245.238281 651.871094 C 245.238281 667.851562 233.019531 680.066406 217.035156 680.066406 C 201.054688 680.066406 188.835938 667.851562 188.835938 651.871094 Z M 217.035156 877.433594 C 233.019531 877.433594 245.238281 889.652344 245.238281 905.628906 C 245.238281 921.605469 233.019531 933.824219 217.035156 933.824219 C 201.054688 933.824219 188.835938 921.605469 188.835938 905.628906 C 188.835938 889.652344 201.054688 877.433594 217.035156 877.433594 Z M 217.035156 877.433594 " fill-opacity="1" fill-rule="nonzero"/><g fill="#050a30" fill-opacity="1"><g transform="translate(1438.835136, 766.026418)"><g><path d="M 277.199219 -328.949219 C 276.300781 -331.199219 275.398438 -333.898438 274.5 -335.699219 C 267.300781 -359.101562 245.699219 -375.75 220.949219 -375.75 C 209.699219 -375.75 198.898438 -372.601562 189.898438 -366.300781 C 187.199219 -364.949219 184.949219 -363.148438 183.148438 -361.800781 C 176.398438 -355.949219 169.648438 -345.148438 163.351562 -328.949219 L 37.800781 -17.101562 C 36.449219 -13.050781 36 -9 36.898438 -6.300781 C 37.351562 -3.601562 39.601562 0.449219 46.800781 0.449219 L 96.300781 0.449219 C 102.148438 0.449219 106.648438 -3.148438 108.898438 -9 L 134.550781 -73.351562 L 233.101562 -73.351562 C 238.050781 -73.351562 242.550781 -75.601562 244.800781 -79.648438 C 247.5 -83.25 247.949219 -88.199219 246.601562 -92.699219 L 230.398438 -132.75 C 228.148438 -138.148438 223.199219 -141.75 217.351562 -141.75 L 161.550781 -141.75 L 219.148438 -287.550781 C 219.601562 -288.449219 220.050781 -288.898438 220.050781 -288.898438 L 221.851562 -288.898438 C 221.851562 -288.898438 221.851562 -288.898438 222.300781 -288 L 333.898438 -9.449219 C 336.148438 -3.148438 340.648438 0.449219 346.949219 0.449219 L 395.101562 0.449219 C 402.300781 0.449219 404.101562 -4.050781 405 -6.300781 C 405.898438 -9 405.449219 -13.050781 403.648438 -17.101562 Z M 277.199219 -328.949219 "/></g></g></g><g fill="#050a30" fill-opacity="1"><g transform="translate(1940.13429, 766.026418)"><g><path d="M 342.898438 -263.25 C 342.898438 -262.800781 342.898438 -262.351562 342.898438 -261.898438 C 342.898438 -261.449219 342.898438 -261 342.898438 -260.550781 Z M 351.449219 -19.351562 L 272.699219 -154.351562 C 294.75 -157.050781 311.851562 -166.5 323.101562 -181.800781 C 335.699219 -200.25 342.449219 -226.800781 342.898438 -261.898438 C 342.449219 -297 335.699219 -323.550781 323.101562 -342 C 309.601562 -361.351562 287.101562 -370.800781 256.5 -370.800781 L 49.050781 -370.800781 C 45 -370.800781 36 -369.449219 36 -355.050781 L 36 -319.5 C 36 -305.550781 45 -304.199219 49.050781 -304.199219 L 244.800781 -304.199219 C 256.5 -304.199219 264.148438 -301.050781 268.648438 -294.300781 C 273.601562 -287.550781 275.851562 -276.75 275.851562 -261.898438 C 275.851562 -247.050781 273.601562 -236.25 268.648438 -229.5 C 264.148438 -222.75 256.5 -219.601562 244.800781 -219.601562 L 49.050781 -219.601562 C 45 -219.601562 36 -218.25 36 -204.300781 L 36 -15.300781 C 36 -1.351562 45 0.449219 49.050781 0.449219 L 90 0.449219 C 94.050781 0.449219 102.601562 -1.351562 102.601562 -15.300781 L 102.601562 -153 L 197.550781 -153 L 279 -8.550781 C 280.800781 -5.851562 282.148438 -3.601562 283.949219 -2.25 C 286.199219 -0.449219 289.351562 0.449219 293.398438 0.449219 L 342.898438 0.449219 C 348.300781 0.449219 352.351562 -3.148438 353.25 -8.550781 C 353.699219 -13.050781 353.25 -16.648438 351.449219 -19.351562 Z M 351.449219 -19.351562 "/></g></g></g><g fill="#050a30" fill-opacity="1"><g transform="translate(2389.233554, 766.026418)"><g><path d="M 346.949219 -370.800781 L 49.050781 -370.800781 C 45 -370.800781 36 -369.449219 36 -355.5 L 36 -320.398438 C 36 -305.550781 45 -304.199219 49.050781 -304.199219 L 164.699219 -304.199219 L 164.699219 -15.300781 C 164.699219 -1.351562 173.699219 0 177.300781 0 L 218.699219 0 C 222.75 0 231.300781 -1.351562 231.300781 -15.300781 L 231.300781 -304.199219 L 346.949219 -304.199219 C 351 -304.199219 360 -305.550781 360 -320.398438 L 360 -355.5 C 360 -369.449219 351 -370.800781 346.949219 -370.800781 Z M 346.949219 -370.800781 "/></g></g></g><g fill="#050a30" fill-opacity="1"><g transform="translate(2844.632743, 766.026418)"><g><path d="M 306.449219 -80.550781 L 148.050781 -80.550781 C 138.601562 -80.550781 130.949219 -81.898438 124.648438 -83.699219 C 118.800781 -85.949219 114.75 -89.101562 111.148438 -93.601562 C 107.550781 -98.550781 104.851562 -105.300781 103.5 -113.851562 C 103.050781 -116.101562 103.050781 -119.25 102.601562 -121.5 C 102.601562 -121.5 103.050781 -153.898438 103.5 -153.898438 L 304.648438 -153.898438 C 308.25 -153.898438 317.25 -155.699219 317.25 -169.648438 L 317.25 -205.199219 C 317.25 -219.148438 308.25 -220.5 304.648438 -220.5 L 72.449219 -220.050781 C 59.398438 -219.148438 48.148438 -212.398438 41.851562 -201.148438 C 39.601562 -197.550781 37.800781 -193.949219 36.898438 -189.898438 L 36 -133.199219 L 36 -130.949219 C 36.449219 -109.800781 38.699219 -91.800781 41.851562 -76.949219 C 45.898438 -58.949219 52.648438 -44.101562 61.199219 -32.851562 C 70.199219 -21.148438 81.898438 -13.050781 96.300781 -8.101562 C 110.25 -2.699219 126.898438 -0.449219 146.699219 -0.449219 L 306.449219 -0.449219 C 310.5 -0.449219 319.5 -1.800781 319.5 -15.75 L 319.5 -65.25 C 319.5 -79.199219 310.5 -80.550781 306.449219 -80.550781 Z M 306.898438 -371.699219 L 48.148438 -371.699219 C 44.550781 -371.699219 36 -369.898438 36 -355.5 L 36 -320.398438 C 36 -306.449219 44.550781 -305.101562 48.148438 -305.101562 L 306.898438 -304.648438 C 310.5 -304.648438 319.5 -306.449219 319.5 -320.398438 L 319.5 -355.949219 C 319.5 -369.898438 310.5 -371.699219 306.898438 -371.699219 Z M 306.898438 -371.699219 "/></g></g></g><g fill="#050a30" fill-opacity="1"><g transform="translate(3259.532122, 766.026418)"><g><path d="M 411.75 -370.800781 L 371.25 -370.800781 C 364.949219 -370.800781 360 -370.351562 355.5 -369 C 351 -367.648438 346.949219 -365.398438 343.351562 -362.25 C 340.199219 -358.648438 337.050781 -354.601562 334.351562 -349.199219 C 331.648438 -343.800781 329.398438 -337.050781 326.699219 -328.5 L 247.050781 -129.601562 C 246.601562 -127.800781 246.148438 -127.800781 245.699219 -127.800781 L 241.199219 -127.800781 C 241.199219 -127.800781 240.300781 -127.800781 239.851562 -129.601562 L 160.648438 -328.5 C 157.949219 -337.050781 155.25 -343.800781 153 -349.199219 C 150.300781 -354.601562 147.148438 -358.648438 144 -362.25 C 140.398438 -365.398438 135.898438 -367.648438 131.398438 -369 C 126.898438 -370.351562 121.5 -370.800781 115.648438 -370.800781 L 74.25 -370.800781 C 58.949219 -370.800781 48.601562 -365.851562 43.199219 -356.398438 C 38.25 -347.851562 36 -333.449219 36 -312.75 L 36 -15.300781 C 36 -1.351562 45 0.449219 49.050781 0.449219 L 87.75 0.449219 C 91.800781 0.449219 100.351562 -1.351562 100.351562 -15.300781 L 100.351562 -285.75 C 100.351562 -286.199219 100.351562 -286.648438 100.351562 -286.648438 L 102.601562 -286.648438 C 103.050781 -286.648438 103.5 -286.648438 103.949219 -285.300781 L 180.898438 -94.949219 C 184.050781 -85.5 187.199219 -77.398438 190.351562 -70.648438 C 193.949219 -63.898438 197.550781 -58.5 201.148438 -54 C 205.648438 -49.5 210.148438 -45.898438 215.550781 -44.101562 C 220.949219 -42.300781 226.800781 -41.398438 233.550781 -41.398438 L 252 -41.398438 C 258.75 -41.398438 265.050781 -42.300781 270 -44.101562 C 275.398438 -45.898438 280.351562 -49.5 284.398438 -54 C 288 -58.5 292.050781 -63.898438 295.199219 -70.648438 C 298.351562 -77.398438 301.5 -85.5 304.648438 -94.949219 L 382.050781 -285.75 C 382.050781 -286.648438 382.5 -286.648438 382.949219 -286.648438 L 385.199219 -286.648438 C 385.199219 -286.648438 385.199219 -286.199219 385.199219 -285.75 L 385.199219 -15.300781 C 385.199219 -1.351562 394.199219 0.449219 397.800781 0.449219 L 436.5 0.449219 C 440.550781 0.449219 449.550781 -1.351562 449.550781 -15.300781 L 449.550781 -312.75 C 449.550781 -333.449219 447.300781 -347.851562 442.351562 -356.398438 C 436.949219 -365.851562 426.601562 -370.800781 411.75 -370.800781 Z M 411.75 -370.800781 "/></g></g></g><g fill="#050a30" fill-opacity="1"><g transform="translate(3804.481235, 766.026418)"><g><path d="M 90 -370.800781 L 48.601562 -370.800781 C 45 -370.800781 36 -369 36 -355.050781 L 36 -15.300781 C 36 -1.351562 45 0.449219 48.601562 0.449219 L 90 0.449219 C 93.601562 0.449219 102.601562 -1.351562 102.601562 -15.300781 L 102.601562 -355.050781 C 102.601562 -369 93.601562 -370.800781 90 -370.800781 Z M 90 -370.800781 "/></g></g></g><g fill="#050a30" fill-opacity="1"><g transform="translate(4002.48085, 766.026418)"><g><path d="M 253.351562 -221.398438 L 118.351562 -221.398438 C 111.601562 -221.398438 103.050781 -224.101562 103.050781 -246.148438 L 103.050781 -279.449219 C 103.050781 -287.550781 104.398438 -293.851562 106.648438 -298.351562 C 108.449219 -301.050781 111.148438 -304.199219 118.800781 -304.199219 L 301.949219 -304.199219 C 305.550781 -304.199219 314.550781 -305.550781 314.550781 -319.5 L 314.550781 -355.5 C 314.550781 -369.449219 305.550781 -370.800781 301.949219 -370.800781 L 108 -370.800781 C 83.25 -370.800781 65.25 -362.699219 53.550781 -346.050781 C 41.851562 -329.851562 36 -308.25 36 -282.148438 L 36 -247.949219 C 36 -216.898438 42.300781 -191.699219 53.550781 -175.949219 C 67.5 -157.5 88.199219 -154.800781 107.101562 -154.800781 L 242.101562 -154.800781 C 248.851562 -154.800781 257.851562 -152.101562 257.851562 -130.050781 L 257.851562 -91.351562 C 257.851562 -83.25 256.5 -76.949219 253.800781 -72.449219 C 252 -69.75 249.300781 -66.601562 241.648438 -66.601562 L 49.5 -66.601562 C 45.449219 -66.601562 36.449219 -65.25 36.449219 -51.300781 L 36.449219 -15.300781 C 36.449219 -1.351562 45.449219 0 49.5 0 L 252.449219 0 C 277.199219 0 295.648438 -8.550781 307.351562 -25.199219 C 318.601562 -41.398438 324.449219 -62.550781 324.449219 -88.648438 L 324.449219 -128.25 C 324.449219 -157.5 318.601562 -180.449219 306.898438 -196.648438 C 294.75 -212.851562 276.75 -221.398438 253.351562 -221.398438 Z M 253.351562 -221.398438 "/></g></g></g><g fill="#050a30" fill-opacity="1"><g transform="translate(1491.815252, 1200.276381)"><g><path d="M 45.296875 0 C 40.898438 0 37.25 -1.5 34.34375 -4.5 C 31.445312 -7.5 30 -11.195312 30 -15.59375 L 30 -218.703125 C 30 -223.097656 31.5 -226.796875 34.5 -229.796875 C 37.5 -232.796875 41.097656 -234.296875 45.296875 -234.296875 C 49.703125 -234.296875 53.40625 -232.796875 56.40625 -229.796875 C 59.40625 -226.796875 60.90625 -223.097656 60.90625 -218.703125 L 60.90625 -31.203125 L 169.5 -31.203125 C 173.894531 -31.203125 177.59375 -29.703125 180.59375 -26.703125 C 183.59375 -23.703125 185.09375 -20 185.09375 -15.59375 C 185.09375 -11.195312 183.59375 -7.5 180.59375 -4.5 C 177.59375 -1.5 173.894531 0 169.5 0 Z M 45.296875 0 "/></g></g></g><g fill="#050a30" fill-opacity="1"><g transform="translate(1690.114934, 1200.276381)"><g><path d="M 174.296875 -84.59375 C 174.296875 -80.800781 172.992188 -77.65625 170.390625 -75.15625 C 167.796875 -72.65625 164.5 -71.40625 160.5 -71.40625 L 46.5 -71.40625 C 48.695312 -57.40625 55.046875 -46.101562 65.546875 -37.5 C 76.046875 -28.894531 88.894531 -24.59375 104.09375 -24.59375 C 110.09375 -24.59375 116.34375 -25.691406 122.84375 -27.890625 C 129.34375 -30.097656 134.695312 -32.800781 138.90625 -36 C 141.695312 -38.195312 144.992188 -39.296875 148.796875 -39.296875 C 152.597656 -39.296875 155.597656 -38.296875 157.796875 -36.296875 C 161.398438 -33.296875 163.203125 -29.894531 163.203125 -26.09375 C 163.203125 -22.5 161.601562 -19.5 158.40625 -17.09375 C 151.601562 -11.695312 143.148438 -7.296875 133.046875 -3.890625 C 122.953125 -0.492188 113.300781 1.203125 104.09375 1.203125 C 87.695312 1.203125 73 -2.34375 60 -9.4375 C 47 -16.539062 36.847656 -26.394531 29.546875 -39 C 22.242188 -51.601562 18.59375 -65.90625 18.59375 -81.90625 C 18.59375 -97.90625 22.039062 -112.253906 28.9375 -124.953125 C 35.84375 -137.648438 45.445312 -147.546875 57.75 -154.640625 C 70.050781 -161.742188 84 -165.296875 99.59375 -165.296875 C 115 -165.296875 128.300781 -161.894531 139.5 -155.09375 C 150.695312 -148.300781 159.296875 -138.800781 165.296875 -126.59375 C 171.296875 -114.394531 174.296875 -100.394531 174.296875 -84.59375 Z M 99.59375 -139.5 C 85 -139.5 73.148438 -135.5 64.046875 -127.5 C 54.953125 -119.5 49.203125 -108.800781 46.796875 -95.40625 L 146.703125 -95.40625 C 144.898438 -108.800781 139.898438 -119.5 131.703125 -127.5 C 123.503906 -135.5 112.800781 -139.5 99.59375 -139.5 Z M 99.59375 -139.5 "/></g></g></g><g fill="#050a30" fill-opacity="1"><g transform="translate(1882.114595, 1200.276381)"><g><path d="M 101.40625 -165.296875 C 117.195312 -165.296875 131.34375 -161.742188 143.84375 -154.640625 C 156.34375 -147.546875 166.144531 -137.695312 173.25 -125.09375 C 180.351562 -112.5 183.90625 -98.101562 183.90625 -81.90625 L 183.90625 -17.09375 C 183.90625 -1.300781 180.40625 13.09375 173.40625 26.09375 C 166.40625 39.09375 156.550781 49.34375 143.84375 56.84375 C 131.144531 64.34375 116.796875 68.09375 100.796875 68.09375 C 86.398438 68.09375 73 65.242188 60.59375 59.546875 C 48.195312 53.847656 37.800781 45.695312 29.40625 35.09375 C 27.195312 32.300781 26.09375 29.503906 26.09375 26.703125 C 26.09375 22.503906 28.195312 18.90625 32.40625 15.90625 C 35.195312 14.101562 37.992188 13.203125 40.796875 13.203125 C 45.796875 13.203125 49.894531 15.300781 53.09375 19.5 C 58.5 26.5 65.300781 31.847656 73.5 35.546875 C 81.695312 39.242188 91 41.09375 101.40625 41.09375 C 111.195312 41.09375 120.09375 38.742188 128.09375 34.046875 C 136.09375 29.347656 142.492188 22.445312 147.296875 13.34375 C 152.097656 4.25 154.5 -6.597656 154.5 -19.203125 L 154.5 -33.90625 C 148.300781 -22.90625 140.097656 -14.300781 129.890625 -8.09375 C 119.691406 -1.894531 108.195312 1.203125 95.40625 1.203125 C 80.601562 1.203125 67.347656 -2.34375 55.640625 -9.4375 C 43.941406 -16.539062 34.84375 -26.394531 28.34375 -39 C 21.84375 -51.601562 18.59375 -65.90625 18.59375 -81.90625 C 18.59375 -98.101562 22.09375 -112.5 29.09375 -125.09375 C 36.09375 -137.695312 45.894531 -147.546875 58.5 -154.640625 C 71.101562 -161.742188 85.40625 -165.296875 101.40625 -165.296875 Z M 101.40625 -25.796875 C 111.601562 -25.796875 120.75 -28.195312 128.84375 -33 C 136.945312 -37.800781 143.25 -44.453125 147.75 -52.953125 C 152.25 -61.453125 154.5 -71.101562 154.5 -81.90625 C 154.5 -92.695312 152.25 -102.394531 147.75 -111 C 143.25 -119.601562 136.945312 -126.300781 128.84375 -131.09375 C 120.75 -135.894531 111.601562 -138.296875 101.40625 -138.296875 C 91.195312 -138.296875 82.039062 -135.894531 73.9375 -131.09375 C 65.84375 -126.300781 59.492188 -119.601562 54.890625 -111 C 50.296875 -102.394531 48 -92.695312 48 -81.90625 C 48 -71.101562 50.296875 -61.453125 54.890625 -52.953125 C 59.492188 -44.453125 65.84375 -37.800781 73.9375 -33 C 82.039062 -28.195312 91.195312 -25.796875 101.40625 -25.796875 Z M 101.40625 -25.796875 "/></g></g></g><g fill="#050a30" fill-opacity="1"><g transform="translate(2090.314195, 1200.276381)"><g><path d="M 101.40625 -165.296875 C 116.800781 -165.296875 130.75 -161.644531 143.25 -154.34375 C 155.75 -147.050781 165.648438 -137.050781 172.953125 -124.34375 C 180.253906 -111.644531 183.90625 -97.5 183.90625 -81.90625 L 183.90625 -15 C 183.90625 -10.601562 182.453125 -6.953125 179.546875 -4.046875 C 176.648438 -1.148438 173 0.296875 168.59375 0.296875 C 164.195312 0.296875 160.546875 -1.148438 157.640625 -4.046875 C 154.742188 -6.953125 153.296875 -10.601562 153.296875 -15 L 153.296875 -26.09375 C 146.296875 -17.5 137.796875 -10.800781 127.796875 -6 C 117.796875 -1.195312 107 1.203125 95.40625 1.203125 C 81 1.203125 67.945312 -2.394531 56.25 -9.59375 C 44.550781 -16.800781 35.347656 -26.753906 28.640625 -39.453125 C 21.941406 -52.148438 18.59375 -66.300781 18.59375 -81.90625 C 18.59375 -97.5 22.191406 -111.644531 29.390625 -124.34375 C 36.597656 -137.050781 46.550781 -147.050781 59.25 -154.34375 C 71.945312 -161.644531 86 -165.296875 101.40625 -165.296875 Z M 101.40625 -25.796875 C 111.40625 -25.796875 120.453125 -28.242188 128.546875 -33.140625 C 136.648438 -38.046875 143 -44.75 147.59375 -53.25 C 152.195312 -61.75 154.5 -71.300781 154.5 -81.90625 C 154.5 -92.5 152.195312 -102.09375 147.59375 -110.6875 C 143 -119.289062 136.648438 -126.039062 128.546875 -130.9375 C 120.453125 -135.84375 111.40625 -138.296875 101.40625 -138.296875 C 91.40625 -138.296875 82.351562 -135.84375 74.25 -130.9375 C 66.144531 -126.039062 59.742188 -119.289062 55.046875 -110.6875 C 50.347656 -102.09375 48 -92.5 48 -81.90625 C 48 -71.300781 50.347656 -61.75 55.046875 -53.25 C 59.742188 -44.75 66.144531 -38.046875 74.25 -33.140625 C 82.351562 -28.242188 91.40625 -25.796875 101.40625 -25.796875 Z M 101.40625 -25.796875 "/></g></g></g><g fill="#050a30" fill-opacity="1"><g transform="translate(2298.513795, 1200.276381)"><g><path d="M 66 0 C 57.394531 0 49.644531 -2.347656 42.75 -7.046875 C 35.851562 -11.742188 30.503906 -18.34375 26.703125 -26.84375 C 22.898438 -35.34375 21 -44.894531 21 -55.5 L 21 -219.296875 C 21 -223.703125 22.398438 -227.300781 25.203125 -230.09375 C 28.003906 -232.894531 31.601562 -234.296875 36 -234.296875 C 40.394531 -234.296875 43.992188 -232.894531 46.796875 -230.09375 C 49.597656 -227.300781 51 -223.703125 51 -219.296875 L 51 -55.5 C 51 -48.101562 52.398438 -42.003906 55.203125 -37.203125 C 58.003906 -32.398438 61.601562 -30 66 -30 L 73.5 -30 C 77.5 -30 80.75 -28.597656 83.25 -25.796875 C 85.75 -22.992188 87 -19.394531 87 -15 C 87 -10.601562 85.097656 -7.003906 81.296875 -4.203125 C 77.492188 -1.398438 72.59375 0 66.59375 0 Z M 66 0 "/></g></g></g><g fill="#050a30" fill-opacity="1"><g transform="translate(2394.213585, 1200.276381)"><g/></g></g><g fill="#050a30" fill-opacity="1"><g transform="translate(2487.81343, 1200.276381)"><g><path d="M 205.203125 -21.90625 C 206.203125 -19.300781 206.703125 -17.097656 206.703125 -15.296875 C 206.703125 -11.097656 205.203125 -7.5 202.203125 -4.5 C 199.203125 -1.5 195.5 0 191.09375 0 C 188.09375 0 185.242188 -0.847656 182.546875 -2.546875 C 179.847656 -4.242188 177.898438 -6.59375 176.703125 -9.59375 L 159.90625 -51.59375 L 52.203125 -51.59375 L 35.09375 -9.59375 C 33.695312 -6.59375 31.695312 -4.242188 29.09375 -2.546875 C 26.5 -0.847656 23.703125 0 20.703125 0 C 16.296875 0 12.644531 -1.546875 9.75 -4.640625 C 6.851562 -7.742188 5.40625 -11.394531 5.40625 -15.59375 C 5.40625 -17.59375 5.90625 -19.894531 6.90625 -22.5 L 91.203125 -223.796875 C 94.203125 -230.796875 99.101562 -234.296875 105.90625 -234.296875 C 113.101562 -234.296875 118 -230.796875 120.59375 -223.796875 Z M 62.703125 -77.40625 L 149.40625 -77.40625 L 106.5 -184.203125 Z M 62.703125 -77.40625 "/></g></g></g><g fill="#050a30" fill-opacity="1"><g transform="translate(2704.413082, 1200.276381)"><g><path d="M 35.703125 4.796875 C 30.097656 4.796875 25.242188 2.75 21.140625 -1.34375 C 17.046875 -5.445312 15 -10.300781 15 -15.90625 C 15 -21.695312 17.046875 -26.644531 21.140625 -30.75 C 25.242188 -34.851562 30.097656 -36.90625 35.703125 -36.90625 C 41.296875 -36.90625 46.144531 -34.851562 50.25 -30.75 C 54.351562 -26.644531 56.40625 -21.695312 56.40625 -15.90625 C 56.40625 -10.300781 54.40625 -5.445312 50.40625 -1.34375 C 46.40625 2.75 41.503906 4.796875 35.703125 4.796875 Z M 35.703125 4.796875 "/></g></g></g><g fill="#050a30" fill-opacity="1"><g transform="translate(2781.51302, 1200.276381)"><g><path d="M 45.59375 0 C 41.195312 0 37.5 -1.5 34.5 -4.5 C 31.5 -7.5 30 -11.195312 30 -15.59375 L 30 -218.703125 C 30 -223.296875 31.5 -227.039062 34.5 -229.9375 C 37.5 -232.84375 41.195312 -234.296875 45.59375 -234.296875 C 50.195312 -234.296875 53.945312 -232.84375 56.84375 -229.9375 C 59.75 -227.039062 61.203125 -223.296875 61.203125 -218.703125 L 61.203125 -15.59375 C 61.203125 -11.195312 59.75 -7.5 56.84375 -4.5 C 53.945312 -1.5 50.195312 0 45.59375 0 Z M 45.59375 0 "/></g></g></g></svg>