<svg xmlns="http://www.w3.org/2000/svg" xmlns:xlink="http://www.w3.org/1999/xlink" width="500" zoomAndPan="magnify" viewBox="0 0 375 374.999991" height="500" preserveAspectRatio="xMidYMid meet" version="1.0"><defs><g/><clipPath id="de967ac4d3"><path d="M 94 141.394531 L 157.324219 141.394531 L 157.324219 233.644531 L 94 233.644531 Z M 94 141.394531 " clip-rule="nonzero"/></clipPath><clipPath id="63733da3b2"><path d="M 70 141.394531 L 100 141.394531 L 100 215 L 70 215 Z M 70 141.394531 " clip-rule="nonzero"/></clipPath><clipPath id="cae930587b"><path d="M 69.574219 174 L 80 174 L 80 205 L 69.574219 205 Z M 69.574219 174 " clip-rule="nonzero"/></clipPath></defs><g clip-path="url(#de967ac4d3)"><path fill="#050a30" d="M 112.371094 161.367188 C 112.660156 161.65625 113.019531 161.796875 113.375 161.796875 L 121.976562 161.796875 C 122.332031 161.796875 122.691406 161.65625 122.976562 161.367188 L 125.34375 158.996094 C 126.058594 159.355469 126.847656 159.570312 127.707031 159.570312 C 130.5 159.570312 132.722656 157.34375 132.722656 154.542969 C 132.722656 151.738281 130.5 149.511719 127.707031 149.511719 C 124.914062 149.511719 122.691406 151.738281 122.691406 154.542969 C 122.691406 155.402344 122.90625 156.195312 123.265625 156.914062 L 121.402344 158.925781 L 113.949219 158.925781 L 109.078125 154.039062 L 109.078125 144.554688 L 113.234375 144.554688 C 113.375 144.554688 113.519531 144.628906 113.664062 144.554688 C 126.417969 144.050781 139.53125 149.871094 145.90625 161.796875 L 141.105469 161.796875 C 140.460938 159.714844 138.597656 158.207031 136.304688 158.207031 C 133.511719 158.207031 131.289062 160.433594 131.289062 163.234375 C 131.289062 165.535156 132.792969 167.402344 134.871094 168.050781 L 134.871094 181.195312 L 124.125 181.195312 C 123.335938 181.195312 122.691406 181.84375 122.691406 182.632812 L 122.691406 190.535156 L 119.824219 190.535156 L 119.824219 181.914062 C 119.824219 181.484375 119.609375 181.125 119.324219 180.835938 L 114.808594 176.957031 L 114.808594 167.546875 L 120.683594 167.546875 L 122.621094 169.484375 C 122.261719 170.203125 122.046875 170.996094 122.046875 171.855469 C 122.046875 174.660156 124.269531 176.886719 127.0625 176.886719 C 129.855469 176.886719 132.078125 174.660156 132.078125 171.855469 C 132.078125 169.054688 129.855469 166.828125 127.0625 166.828125 C 126.203125 166.828125 125.414062 167.042969 124.699219 167.402344 L 122.332031 165.03125 C 121.976562 164.816406 121.617188 164.671875 121.257812 164.671875 L 113.375 164.671875 C 112.585938 164.671875 111.941406 165.320312 111.941406 166.109375 L 111.941406 177.605469 C 111.941406 178.035156 112.15625 178.394531 112.445312 178.683594 L 116.957031 182.5625 L 116.957031 190.535156 L 111.226562 190.535156 C 110.867188 190.535156 110.507812 190.679688 110.222656 190.96875 L 98.757812 202.464844 C 98.472656 202.75 98.328125 203.109375 98.328125 203.46875 L 98.328125 215.179688 C 96.25 215.828125 94.746094 217.695312 94.746094 219.992188 C 94.746094 222.796875 96.964844 225.023438 99.761719 225.023438 C 102.554688 225.023438 104.777344 222.796875 104.777344 219.992188 C 104.777344 217.695312 103.273438 215.828125 101.195312 215.179688 L 101.195312 204.042969 L 111.800781 193.410156 L 137.738281 193.410156 C 138.3125 193.410156 138.8125 193.125 139.027344 192.621094 L 143.328125 184 C 143.398438 183.785156 143.472656 183.566406 143.472656 183.351562 L 143.472656 178.324219 L 149.777344 178.324219 L 149.777344 184.214844 L 147.914062 188.308594 C 147.769531 188.667969 147.769531 189.027344 147.84375 189.386719 L 154.148438 206.269531 C 154.148438 206.34375 154.148438 206.414062 154.148438 206.488281 C 154.078125 206.558594 154.078125 206.558594 154.003906 206.558594 L 147.84375 206.558594 C 147.414062 206.558594 146.984375 206.773438 146.695312 207.132812 C 146.410156 207.492188 146.335938 207.996094 146.480469 208.425781 L 148.199219 213.457031 L 144.90625 214.605469 C 144.476562 214.75 144.117188 215.109375 143.972656 215.539062 C 143.828125 215.96875 143.902344 216.472656 144.1875 216.832031 L 146.335938 219.777344 L 144.476562 221.214844 C 144.117188 221.503906 143.902344 221.933594 143.902344 222.363281 L 143.902344 226.027344 C 143.902344 227.679688 143.042969 229.261719 141.609375 230.050781 C 140.964844 230.484375 140.175781 230.699219 139.386719 230.699219 C 133.441406 230.769531 110.507812 223.226562 110.507812 210.652344 L 110.507812 207.636719 C 110.507812 206.847656 109.863281 206.199219 109.078125 206.199219 C 108.289062 206.199219 107.644531 206.847656 107.644531 207.636719 L 107.644531 210.652344 C 107.644531 225.957031 133.367188 233.644531 139.457031 233.644531 C 140.75 233.644531 142.039062 233.285156 143.113281 232.636719 C 145.40625 231.273438 146.769531 228.832031 146.769531 226.101562 L 146.769531 223.082031 L 149.132812 221.214844 C 149.707031 220.710938 149.847656 219.851562 149.417969 219.273438 L 147.628906 216.761719 L 150.492188 215.753906 C 151.210938 215.46875 151.640625 214.675781 151.355469 213.957031 L 149.847656 209.433594 L 154.003906 209.433594 C 155.007812 209.433594 155.941406 208.929688 156.511719 208.140625 C 157.085938 207.277344 157.230469 206.199219 156.871094 205.265625 L 150.78125 188.957031 L 152.5 185.148438 C 152.570312 184.933594 152.644531 184.789062 152.644531 184.574219 L 152.644531 176.671875 C 152.214844 165.820312 147.769531 156.699219 139.890625 150.230469 C 132.722656 144.339844 123.480469 141.394531 113.664062 141.683594 C 113.589844 141.683594 113.449219 141.683594 113.375 141.683594 L 107.644531 141.683594 C 106.855469 141.683594 106.210938 142.328125 106.210938 143.117188 L 106.210938 154.613281 C 106.210938 154.972656 106.355469 155.332031 106.640625 155.621094 Z M 127.707031 152.457031 C 128.925781 152.457031 129.855469 153.390625 129.855469 154.613281 C 129.855469 155.835938 128.925781 156.769531 127.707031 156.769531 C 126.488281 156.769531 125.558594 155.835938 125.558594 154.613281 C 125.558594 153.390625 126.488281 152.457031 127.707031 152.457031 Z M 126.992188 169.703125 C 128.207031 169.703125 129.140625 170.636719 129.140625 171.855469 C 129.140625 173.078125 128.207031 174.011719 126.992188 174.011719 C 125.773438 174.011719 124.839844 173.078125 124.839844 171.855469 C 124.839844 170.636719 125.773438 169.703125 126.992188 169.703125 Z M 101.910156 219.992188 C 101.910156 221.214844 100.980469 222.148438 99.761719 222.148438 C 98.542969 222.148438 97.613281 221.214844 97.613281 219.992188 C 97.613281 218.773438 98.542969 217.839844 99.761719 217.839844 C 100.980469 217.839844 101.910156 218.773438 101.910156 219.992188 Z M 134.15625 163.234375 C 134.15625 162.015625 135.085938 161.078125 136.304688 161.078125 C 137.523438 161.078125 138.457031 162.015625 138.457031 163.234375 C 138.457031 164.457031 137.523438 165.390625 136.304688 165.390625 C 135.085938 165.390625 134.15625 164.457031 134.15625 163.234375 Z M 149.707031 175.449219 L 142.039062 175.449219 C 141.25 175.449219 140.605469 176.097656 140.605469 176.886719 L 140.605469 182.992188 L 136.878906 190.535156 L 125.558594 190.535156 L 125.558594 184.070312 L 136.304688 184.070312 C 137.09375 184.070312 137.738281 183.425781 137.738281 182.632812 L 137.738281 168.050781 C 139.386719 167.546875 140.605469 166.253906 141.105469 164.671875 L 147.269531 164.671875 C 148.558594 167.90625 149.417969 171.496094 149.707031 175.449219 Z M 149.707031 175.449219 " fill-opacity="1" fill-rule="nonzero"/></g><g clip-path="url(#63733da3b2)"><path fill="#050a30" d="M 73.964844 151.523438 L 73.964844 163.953125 C 73.964844 164.386719 74.179688 164.816406 74.464844 165.101562 L 82.347656 171.425781 C 82.421875 171.496094 82.492188 171.496094 82.5625 171.570312 L 82.5625 186.945312 C 82.5625 187.304688 82.707031 187.589844 82.921875 187.878906 L 86.863281 192.476562 L 86.863281 204.402344 C 84.785156 205.050781 83.28125 206.917969 83.28125 209.214844 C 83.28125 212.019531 85.5 214.246094 88.296875 214.246094 C 91.089844 214.246094 93.3125 212.019531 93.3125 209.214844 C 93.3125 206.917969 91.808594 205.050781 89.730469 204.402344 L 89.730469 191.972656 C 89.730469 191.613281 89.585938 191.328125 89.371094 191.039062 L 85.429688 186.441406 L 85.429688 154.902344 L 92.597656 158.996094 L 92.597656 161.941406 C 90.519531 162.589844 89.011719 164.457031 89.011719 166.753906 C 89.011719 169.558594 91.234375 171.785156 94.027344 171.785156 C 96.824219 171.785156 99.042969 169.558594 99.042969 166.753906 C 99.042969 164.457031 97.539062 162.589844 95.460938 161.941406 L 95.460938 158.207031 C 95.460938 157.703125 95.175781 157.199219 94.746094 156.984375 L 84.714844 151.238281 C 84.285156 150.949219 83.710938 150.949219 83.28125 151.238281 C 82.851562 151.523438 82.5625 151.957031 82.5625 152.457031 L 82.5625 167.90625 L 76.832031 163.234375 L 76.832031 151.523438 C 78.910156 150.878906 80.414062 149.011719 80.414062 146.710938 C 80.414062 143.910156 78.191406 141.683594 75.398438 141.683594 C 72.605469 141.683594 70.382812 143.910156 70.382812 146.710938 C 70.382812 149.011719 71.886719 150.878906 73.964844 151.523438 Z M 90.445312 209.214844 C 90.445312 210.4375 89.515625 211.371094 88.296875 211.371094 C 87.078125 211.371094 86.148438 210.4375 86.148438 209.214844 C 86.148438 207.996094 87.078125 207.0625 88.296875 207.0625 C 89.515625 207.0625 90.445312 207.996094 90.445312 209.214844 Z M 96.179688 166.828125 C 96.179688 168.050781 95.246094 168.984375 94.027344 168.984375 C 92.8125 168.984375 91.878906 168.050781 91.878906 166.828125 C 91.878906 165.605469 92.8125 164.671875 94.027344 164.671875 C 95.246094 164.671875 96.179688 165.605469 96.179688 166.828125 Z M 75.398438 144.554688 C 76.617188 144.554688 77.546875 145.488281 77.546875 146.710938 C 77.546875 147.933594 76.617188 148.867188 75.398438 148.867188 C 74.179688 148.867188 73.25 147.933594 73.25 146.710938 C 73.25 145.488281 74.179688 144.554688 75.398438 144.554688 Z M 75.398438 144.554688 " fill-opacity="1" fill-rule="nonzero"/></g><path fill="#050a30" d="M 106.210938 164.527344 L 106.210938 185.578125 L 95.460938 196.355469 L 95.460938 186.011719 C 97.539062 185.363281 99.042969 183.496094 99.042969 181.195312 C 99.042969 178.394531 96.824219 176.167969 94.027344 176.167969 C 91.234375 176.167969 89.011719 178.394531 89.011719 181.195312 C 89.011719 183.496094 90.519531 185.363281 92.597656 186.011719 L 92.597656 199.875 C 92.597656 200.453125 92.953125 200.953125 93.457031 201.171875 C 93.671875 201.3125 93.8125 201.3125 94.027344 201.3125 C 94.386719 201.3125 94.746094 201.171875 95.03125 200.882812 L 108.648438 187.230469 C 108.933594 186.945312 109.078125 186.585938 109.078125 186.226562 L 109.078125 163.953125 C 109.078125 163.59375 108.933594 163.234375 108.648438 162.949219 L 103.34375 157.632812 L 103.34375 146.710938 C 103.34375 145.921875 102.699219 145.273438 101.910156 145.273438 C 101.121094 145.273438 100.476562 145.921875 100.476562 146.710938 L 100.476562 158.207031 C 100.476562 158.566406 100.621094 158.925781 100.90625 159.210938 Z M 94.027344 183.351562 C 92.8125 183.351562 91.878906 182.417969 91.878906 181.195312 C 91.878906 179.976562 92.8125 179.042969 94.027344 179.042969 C 95.246094 179.042969 96.179688 179.976562 96.179688 181.195312 C 96.179688 182.417969 95.246094 183.351562 94.027344 183.351562 Z M 94.027344 183.351562 " fill-opacity="1" fill-rule="nonzero"/><g clip-path="url(#cae930587b)"><path fill="#050a30" d="M 69.664062 199.160156 C 69.664062 201.960938 71.886719 204.1875 74.683594 204.1875 C 77.476562 204.1875 79.699219 201.960938 79.699219 199.160156 C 79.699219 196.859375 78.191406 194.992188 76.113281 194.34375 L 76.113281 184.574219 C 78.191406 183.925781 79.699219 182.058594 79.699219 179.761719 C 79.699219 176.957031 77.476562 174.730469 74.683594 174.730469 C 71.886719 174.730469 69.664062 176.957031 69.664062 179.761719 C 69.664062 182.058594 71.171875 183.925781 73.25 184.574219 L 73.25 194.34375 C 71.171875 194.992188 69.664062 196.859375 69.664062 199.160156 Z M 72.53125 179.761719 C 72.53125 178.539062 73.464844 177.605469 74.683594 177.605469 C 75.898438 177.605469 76.832031 178.539062 76.832031 179.761719 C 76.832031 180.980469 75.898438 181.914062 74.683594 181.914062 C 73.464844 181.914062 72.53125 180.980469 72.53125 179.761719 Z M 74.683594 197.003906 C 75.898438 197.003906 76.832031 197.9375 76.832031 199.160156 C 76.832031 200.378906 75.898438 201.3125 74.683594 201.3125 C 73.464844 201.3125 72.53125 200.378906 72.53125 199.160156 C 72.53125 197.9375 73.464844 197.003906 74.683594 197.003906 Z M 74.683594 197.003906 " fill-opacity="1" fill-rule="nonzero"/></g><g fill="#050a30" fill-opacity="1"><g transform="translate(172.858323, 182.231369)"><g><path d="M 14.785156 -17.542969 C 14.734375 -17.664062 14.6875 -17.808594 14.640625 -17.902344 C 14.257812 -19.152344 13.105469 -20.039062 11.785156 -20.039062 C 11.183594 -20.039062 10.609375 -19.871094 10.128906 -19.535156 C 9.984375 -19.464844 9.863281 -19.367188 9.769531 -19.296875 C 9.40625 -18.984375 9.046875 -18.40625 8.710938 -17.542969 L 2.015625 -0.910156 C 1.945312 -0.695312 1.921875 -0.480469 1.96875 -0.335938 C 1.992188 -0.191406 2.113281 0.0234375 2.496094 0.0234375 L 5.136719 0.0234375 C 5.449219 0.0234375 5.6875 -0.167969 5.808594 -0.480469 L 7.175781 -3.910156 L 12.433594 -3.910156 C 12.695312 -3.910156 12.9375 -4.03125 13.054688 -4.246094 C 13.199219 -4.441406 13.222656 -4.703125 13.152344 -4.945312 L 12.289062 -7.078125 C 12.167969 -7.367188 11.902344 -7.558594 11.59375 -7.558594 L 8.617188 -7.558594 L 11.6875 -15.335938 C 11.710938 -15.382812 11.734375 -15.40625 11.734375 -15.40625 L 11.832031 -15.40625 C 11.832031 -15.40625 11.832031 -15.40625 11.855469 -15.359375 L 17.808594 -0.503906 C 17.929688 -0.167969 18.167969 0.0234375 18.503906 0.0234375 L 21.070312 0.0234375 C 21.457031 0.0234375 21.550781 -0.214844 21.601562 -0.335938 C 21.648438 -0.480469 21.625 -0.695312 21.527344 -0.910156 Z M 14.785156 -17.542969 "/></g></g></g><g fill="#050a30" fill-opacity="1"><g transform="translate(199.594369, 182.231369)"><g><path d="M 18.289062 -14.039062 C 18.289062 -14.015625 18.289062 -13.992188 18.289062 -13.96875 C 18.289062 -13.945312 18.289062 -13.921875 18.289062 -13.894531 Z M 18.742188 -1.03125 L 14.542969 -8.230469 C 15.71875 -8.375 16.632812 -8.878906 17.230469 -9.695312 C 17.902344 -10.679688 18.265625 -12.097656 18.289062 -13.96875 C 18.265625 -15.839844 17.902344 -17.257812 17.230469 -18.238281 C 16.511719 -19.273438 15.3125 -19.777344 13.679688 -19.777344 L 2.617188 -19.777344 C 2.398438 -19.777344 1.921875 -19.703125 1.921875 -18.9375 L 1.921875 -17.039062 C 1.921875 -16.296875 2.398438 -16.222656 2.617188 -16.222656 L 13.054688 -16.222656 C 13.679688 -16.222656 14.089844 -16.054688 14.328125 -15.695312 C 14.59375 -15.335938 14.710938 -14.761719 14.710938 -13.96875 C 14.710938 -13.175781 14.59375 -12.601562 14.328125 -12.238281 C 14.089844 -11.878906 13.679688 -11.710938 13.054688 -11.710938 L 2.617188 -11.710938 C 2.398438 -11.710938 1.921875 -11.640625 1.921875 -10.894531 L 1.921875 -0.816406 C 1.921875 -0.0703125 2.398438 0.0234375 2.617188 0.0234375 L 4.800781 0.0234375 C 5.015625 0.0234375 5.472656 -0.0703125 5.472656 -0.816406 L 5.472656 -8.160156 L 10.535156 -8.160156 L 14.878906 -0.457031 C 14.976562 -0.3125 15.046875 -0.191406 15.144531 -0.121094 C 15.265625 -0.0234375 15.433594 0.0234375 15.648438 0.0234375 L 18.289062 0.0234375 C 18.574219 0.0234375 18.792969 -0.167969 18.839844 -0.457031 C 18.863281 -0.695312 18.839844 -0.886719 18.742188 -1.03125 Z M 18.742188 -1.03125 "/></g></g></g><g fill="#050a30" fill-opacity="1"><g transform="translate(223.546411, 182.231369)"><g><path d="M 18.503906 -19.777344 L 2.617188 -19.777344 C 2.398438 -19.777344 1.921875 -19.703125 1.921875 -18.960938 L 1.921875 -17.089844 C 1.921875 -16.296875 2.398438 -16.222656 2.617188 -16.222656 L 8.785156 -16.222656 L 8.785156 -0.816406 C 8.785156 -0.0703125 9.265625 0 9.457031 0 L 11.664062 0 C 11.878906 0 12.335938 -0.0703125 12.335938 -0.816406 L 12.335938 -16.222656 L 18.503906 -16.222656 C 18.71875 -16.222656 19.199219 -16.296875 19.199219 -17.089844 L 19.199219 -18.960938 C 19.199219 -19.703125 18.71875 -19.777344 18.503906 -19.777344 Z M 18.503906 -19.777344 "/></g></g></g><g fill="#050a30" fill-opacity="1"><g transform="translate(247.834451, 182.231369)"><g><path d="M 16.34375 -4.296875 L 7.894531 -4.296875 C 7.390625 -4.296875 6.984375 -4.367188 6.648438 -4.464844 C 6.335938 -4.585938 6.121094 -4.753906 5.929688 -4.992188 C 5.734375 -5.257812 5.59375 -5.617188 5.519531 -6.070312 C 5.496094 -6.191406 5.496094 -6.359375 5.472656 -6.480469 C 5.472656 -6.480469 5.496094 -8.207031 5.519531 -8.207031 L 16.246094 -8.207031 C 16.441406 -8.207031 16.921875 -8.304688 16.921875 -9.046875 L 16.921875 -10.945312 C 16.921875 -11.6875 16.441406 -11.761719 16.246094 -11.761719 L 3.863281 -11.734375 C 3.167969 -11.6875 2.566406 -11.328125 2.230469 -10.726562 C 2.113281 -10.535156 2.015625 -10.34375 1.96875 -10.128906 L 1.921875 -7.105469 L 1.921875 -6.984375 C 1.945312 -5.855469 2.0625 -4.894531 2.230469 -4.105469 C 2.449219 -3.144531 2.808594 -2.351562 3.265625 -1.753906 C 3.742188 -1.128906 4.367188 -0.695312 5.136719 -0.433594 C 5.878906 -0.144531 6.769531 -0.0234375 7.824219 -0.0234375 L 16.34375 -0.0234375 C 16.558594 -0.0234375 17.039062 -0.0976562 17.039062 -0.839844 L 17.039062 -3.480469 C 17.039062 -4.222656 16.558594 -4.296875 16.34375 -4.296875 Z M 16.367188 -19.824219 L 2.566406 -19.824219 C 2.375 -19.824219 1.921875 -19.726562 1.921875 -18.960938 L 1.921875 -17.089844 C 1.921875 -16.34375 2.375 -16.273438 2.566406 -16.273438 L 16.367188 -16.246094 C 16.558594 -16.246094 17.039062 -16.34375 17.039062 -17.089844 L 17.039062 -18.984375 C 17.039062 -19.726562 16.558594 -19.824219 16.367188 -19.824219 Z M 16.367188 -19.824219 "/></g></g></g><g fill="#050a30" fill-opacity="1"><g transform="translate(269.962488, 182.231369)"><g><path d="M 21.960938 -19.777344 L 19.800781 -19.777344 C 19.464844 -19.777344 19.199219 -19.753906 18.960938 -19.679688 C 18.71875 -19.609375 18.503906 -19.488281 18.3125 -19.320312 C 18.144531 -19.128906 17.976562 -18.910156 17.832031 -18.625 C 17.6875 -18.335938 17.566406 -17.976562 17.425781 -17.519531 L 13.175781 -6.910156 C 13.152344 -6.816406 13.128906 -6.816406 13.105469 -6.816406 L 12.863281 -6.816406 C 12.863281 -6.816406 12.816406 -6.816406 12.792969 -6.910156 L 8.566406 -17.519531 C 8.425781 -17.976562 8.28125 -18.335938 8.160156 -18.625 C 8.015625 -18.910156 7.847656 -19.128906 7.679688 -19.320312 C 7.488281 -19.488281 7.246094 -19.609375 7.007812 -19.679688 C 6.769531 -19.753906 6.480469 -19.777344 6.167969 -19.777344 L 3.960938 -19.777344 C 3.144531 -19.777344 2.59375 -19.511719 2.304688 -19.007812 C 2.039062 -18.550781 1.921875 -17.785156 1.921875 -16.679688 L 1.921875 -0.816406 C 1.921875 -0.0703125 2.398438 0.0234375 2.617188 0.0234375 L 4.679688 0.0234375 C 4.894531 0.0234375 5.351562 -0.0703125 5.351562 -0.816406 L 5.351562 -15.238281 C 5.351562 -15.265625 5.351562 -15.289062 5.351562 -15.289062 L 5.472656 -15.289062 C 5.496094 -15.289062 5.519531 -15.289062 5.542969 -15.214844 L 9.648438 -5.0625 C 9.816406 -4.558594 9.984375 -4.128906 10.152344 -3.769531 C 10.34375 -3.40625 10.535156 -3.121094 10.726562 -2.878906 C 10.96875 -2.640625 11.207031 -2.449219 11.496094 -2.351562 C 11.785156 -2.257812 12.097656 -2.207031 12.457031 -2.207031 L 13.441406 -2.207031 C 13.800781 -2.207031 14.136719 -2.257812 14.398438 -2.351562 C 14.6875 -2.449219 14.953125 -2.640625 15.167969 -2.878906 C 15.359375 -3.121094 15.574219 -3.40625 15.742188 -3.769531 C 15.910156 -4.128906 16.078125 -4.558594 16.246094 -5.0625 L 20.375 -15.238281 C 20.375 -15.289062 20.398438 -15.289062 20.425781 -15.289062 L 20.542969 -15.289062 C 20.542969 -15.289062 20.542969 -15.265625 20.542969 -15.238281 L 20.542969 -0.816406 C 20.542969 -0.0703125 21.023438 0.0234375 21.214844 0.0234375 L 23.28125 0.0234375 C 23.496094 0.0234375 23.976562 -0.0703125 23.976562 -0.816406 L 23.976562 -16.679688 C 23.976562 -17.785156 23.855469 -18.550781 23.59375 -19.007812 C 23.304688 -19.511719 22.753906 -19.777344 21.960938 -19.777344 Z M 21.960938 -19.777344 "/></g></g></g><g fill="#050a30" fill-opacity="1"><g transform="translate(299.026542, 182.231369)"><g><path d="M 4.800781 -19.777344 L 2.59375 -19.777344 C 2.398438 -19.777344 1.921875 -19.679688 1.921875 -18.9375 L 1.921875 -0.816406 C 1.921875 -0.0703125 2.398438 0.0234375 2.59375 0.0234375 L 4.800781 0.0234375 C 4.992188 0.0234375 5.472656 -0.0703125 5.472656 -0.816406 L 5.472656 -18.9375 C 5.472656 -19.679688 4.992188 -19.777344 4.800781 -19.777344 Z M 4.800781 -19.777344 "/></g></g></g><g fill="#050a30" fill-opacity="1"><g transform="translate(309.586555, 182.231369)"><g><path d="M 13.511719 -11.808594 L 6.3125 -11.808594 C 5.953125 -11.808594 5.496094 -11.953125 5.496094 -13.128906 L 5.496094 -14.902344 C 5.496094 -15.335938 5.566406 -15.671875 5.6875 -15.910156 C 5.785156 -16.054688 5.929688 -16.222656 6.335938 -16.222656 L 16.105469 -16.222656 C 16.296875 -16.222656 16.777344 -16.296875 16.777344 -17.039062 L 16.777344 -18.960938 C 16.777344 -19.703125 16.296875 -19.777344 16.105469 -19.777344 L 5.761719 -19.777344 C 4.441406 -19.777344 3.480469 -19.34375 2.855469 -18.457031 C 2.230469 -17.59375 1.921875 -16.441406 1.921875 -15.046875 L 1.921875 -13.222656 C 1.921875 -11.566406 2.257812 -10.222656 2.855469 -9.382812 C 3.601562 -8.398438 4.703125 -8.257812 5.710938 -8.257812 L 12.910156 -8.257812 C 13.273438 -8.257812 13.753906 -8.113281 13.753906 -6.9375 L 13.753906 -4.871094 C 13.753906 -4.441406 13.679688 -4.105469 13.535156 -3.863281 C 13.441406 -3.71875 13.296875 -3.550781 12.886719 -3.550781 L 2.640625 -3.550781 C 2.425781 -3.550781 1.945312 -3.480469 1.945312 -2.734375 L 1.945312 -0.816406 C 1.945312 -0.0703125 2.425781 0 2.640625 0 L 13.464844 0 C 14.785156 0 15.769531 -0.457031 16.390625 -1.34375 C 16.992188 -2.207031 17.304688 -3.335938 17.304688 -4.726562 L 17.304688 -6.839844 C 17.304688 -8.398438 16.992188 -9.625 16.367188 -10.488281 C 15.71875 -11.351562 14.761719 -11.808594 13.511719 -11.808594 Z M 13.511719 -11.808594 "/></g></g></g><g fill="#050a30" fill-opacity="1"><g transform="translate(174.704919, 208.268614)"><g><path d="M 2.109375 0 C 1.910156 0 1.742188 -0.0664062 1.609375 -0.203125 C 1.472656 -0.347656 1.40625 -0.523438 1.40625 -0.734375 L 1.40625 -10.203125 C 1.40625 -10.410156 1.472656 -10.582031 1.609375 -10.71875 C 1.742188 -10.863281 1.910156 -10.9375 2.109375 -10.9375 C 2.316406 -10.9375 2.488281 -10.863281 2.625 -10.71875 C 2.769531 -10.582031 2.84375 -10.410156 2.84375 -10.203125 L 2.84375 -1.453125 L 7.90625 -1.453125 C 8.113281 -1.453125 8.285156 -1.378906 8.421875 -1.234375 C 8.566406 -1.097656 8.640625 -0.929688 8.640625 -0.734375 C 8.640625 -0.523438 8.566406 -0.347656 8.421875 -0.203125 C 8.285156 -0.0664062 8.113281 0 7.90625 0 Z M 2.109375 0 "/></g></g></g><g fill="#050a30" fill-opacity="1"><g transform="translate(183.953901, 208.268614)"><g><path d="M 8.140625 -3.953125 C 8.140625 -3.773438 8.078125 -3.625 7.953125 -3.5 C 7.828125 -3.382812 7.671875 -3.328125 7.484375 -3.328125 L 2.171875 -3.328125 C 2.273438 -2.679688 2.570312 -2.15625 3.0625 -1.75 C 3.550781 -1.34375 4.148438 -1.140625 4.859375 -1.140625 C 5.140625 -1.140625 5.429688 -1.191406 5.734375 -1.296875 C 6.035156 -1.398438 6.285156 -1.53125 6.484375 -1.6875 C 6.609375 -1.78125 6.757812 -1.828125 6.9375 -1.828125 C 7.113281 -1.828125 7.253906 -1.78125 7.359375 -1.6875 C 7.523438 -1.550781 7.609375 -1.394531 7.609375 -1.21875 C 7.609375 -1.050781 7.535156 -0.910156 7.390625 -0.796875 C 7.078125 -0.546875 6.679688 -0.335938 6.203125 -0.171875 C 5.734375 -0.015625 5.285156 0.0625 4.859375 0.0625 C 4.085938 0.0625 3.398438 -0.101562 2.796875 -0.4375 C 2.191406 -0.769531 1.71875 -1.226562 1.375 -1.8125 C 1.039062 -2.40625 0.875 -3.078125 0.875 -3.828125 C 0.875 -4.566406 1.03125 -5.234375 1.34375 -5.828125 C 1.664062 -6.421875 2.113281 -6.882812 2.6875 -7.21875 C 3.269531 -7.550781 3.921875 -7.71875 4.640625 -7.71875 C 5.359375 -7.71875 5.976562 -7.554688 6.5 -7.234375 C 7.03125 -6.921875 7.4375 -6.476562 7.71875 -5.90625 C 8 -5.332031 8.140625 -4.679688 8.140625 -3.953125 Z M 4.640625 -6.515625 C 3.960938 -6.515625 3.410156 -6.328125 2.984375 -5.953125 C 2.566406 -5.578125 2.300781 -5.078125 2.1875 -4.453125 L 6.84375 -4.453125 C 6.757812 -5.078125 6.523438 -5.578125 6.140625 -5.953125 C 5.765625 -6.328125 5.265625 -6.515625 4.640625 -6.515625 Z M 4.640625 -6.515625 "/></g></g></g><g fill="#050a30" fill-opacity="1"><g transform="translate(192.909057, 208.268614)"><g><path d="M 4.734375 -7.71875 C 5.472656 -7.71875 6.132812 -7.550781 6.71875 -7.21875 C 7.300781 -6.882812 7.753906 -6.421875 8.078125 -5.828125 C 8.410156 -5.242188 8.578125 -4.578125 8.578125 -3.828125 L 8.578125 -0.796875 C 8.578125 -0.0546875 8.414062 0.613281 8.09375 1.21875 C 7.769531 1.820312 7.3125 2.296875 6.71875 2.640625 C 6.125 2.992188 5.453125 3.171875 4.703125 3.171875 C 4.035156 3.171875 3.410156 3.035156 2.828125 2.765625 C 2.242188 2.503906 1.757812 2.128906 1.375 1.640625 C 1.269531 1.503906 1.21875 1.375 1.21875 1.25 C 1.21875 1.050781 1.316406 0.878906 1.515625 0.734375 C 1.640625 0.648438 1.769531 0.609375 1.90625 0.609375 C 2.132812 0.609375 2.328125 0.707031 2.484375 0.90625 C 2.734375 1.238281 3.046875 1.488281 3.421875 1.65625 C 3.804688 1.832031 4.242188 1.921875 4.734375 1.921875 C 5.191406 1.921875 5.601562 1.8125 5.96875 1.59375 C 6.34375 1.375 6.640625 1.050781 6.859375 0.625 C 7.085938 0.195312 7.203125 -0.304688 7.203125 -0.890625 L 7.203125 -1.578125 C 6.921875 -1.066406 6.539062 -0.664062 6.0625 -0.375 C 5.582031 -0.0820312 5.046875 0.0625 4.453125 0.0625 C 3.765625 0.0625 3.144531 -0.101562 2.59375 -0.4375 C 2.050781 -0.769531 1.628906 -1.226562 1.328125 -1.8125 C 1.023438 -2.40625 0.875 -3.078125 0.875 -3.828125 C 0.875 -4.578125 1.035156 -5.242188 1.359375 -5.828125 C 1.679688 -6.421875 2.132812 -6.882812 2.71875 -7.21875 C 3.3125 -7.550781 3.984375 -7.71875 4.734375 -7.71875 Z M 4.734375 -1.203125 C 5.210938 -1.203125 5.640625 -1.3125 6.015625 -1.53125 C 6.390625 -1.757812 6.679688 -2.070312 6.890625 -2.46875 C 7.097656 -2.863281 7.203125 -3.316406 7.203125 -3.828125 C 7.203125 -4.328125 7.097656 -4.773438 6.890625 -5.171875 C 6.679688 -5.578125 6.390625 -5.890625 6.015625 -6.109375 C 5.640625 -6.335938 5.210938 -6.453125 4.734375 -6.453125 C 4.253906 -6.453125 3.828125 -6.335938 3.453125 -6.109375 C 3.078125 -5.890625 2.78125 -5.578125 2.5625 -5.171875 C 2.34375 -4.773438 2.234375 -4.328125 2.234375 -3.828125 C 2.234375 -3.316406 2.34375 -2.863281 2.5625 -2.46875 C 2.78125 -2.070312 3.078125 -1.757812 3.453125 -1.53125 C 3.828125 -1.3125 4.253906 -1.203125 4.734375 -1.203125 Z M 4.734375 -1.203125 "/></g></g></g><g fill="#050a30" fill-opacity="1"><g transform="translate(202.619786, 208.268614)"><g><path d="M 4.734375 -7.71875 C 5.453125 -7.71875 6.101562 -7.546875 6.6875 -7.203125 C 7.269531 -6.859375 7.726562 -6.390625 8.0625 -5.796875 C 8.40625 -5.203125 8.578125 -4.546875 8.578125 -3.828125 L 8.578125 -0.703125 C 8.578125 -0.492188 8.507812 -0.320312 8.375 -0.1875 C 8.238281 -0.0507812 8.070312 0.015625 7.875 0.015625 C 7.664062 0.015625 7.492188 -0.0507812 7.359375 -0.1875 C 7.222656 -0.320312 7.15625 -0.492188 7.15625 -0.703125 L 7.15625 -1.21875 C 6.820312 -0.8125 6.421875 -0.492188 5.953125 -0.265625 C 5.492188 -0.046875 4.992188 0.0625 4.453125 0.0625 C 3.773438 0.0625 3.164062 -0.101562 2.625 -0.4375 C 2.082031 -0.78125 1.65625 -1.25 1.34375 -1.84375 C 1.03125 -2.4375 0.875 -3.097656 0.875 -3.828125 C 0.875 -4.546875 1.039062 -5.203125 1.375 -5.796875 C 1.707031 -6.390625 2.171875 -6.859375 2.765625 -7.203125 C 3.359375 -7.546875 4.015625 -7.71875 4.734375 -7.71875 Z M 4.734375 -1.203125 C 5.203125 -1.203125 5.625 -1.316406 6 -1.546875 C 6.375 -1.773438 6.664062 -2.085938 6.875 -2.484375 C 7.09375 -2.878906 7.203125 -3.328125 7.203125 -3.828125 C 7.203125 -4.316406 7.09375 -4.757812 6.875 -5.15625 C 6.664062 -5.5625 6.375 -5.878906 6 -6.109375 C 5.625 -6.335938 5.203125 -6.453125 4.734375 -6.453125 C 4.265625 -6.453125 3.835938 -6.335938 3.453125 -6.109375 C 3.078125 -5.878906 2.78125 -5.5625 2.5625 -5.15625 C 2.34375 -4.757812 2.234375 -4.316406 2.234375 -3.828125 C 2.234375 -3.328125 2.34375 -2.878906 2.5625 -2.484375 C 2.78125 -2.085938 3.078125 -1.773438 3.453125 -1.546875 C 3.835938 -1.316406 4.265625 -1.203125 4.734375 -1.203125 Z M 4.734375 -1.203125 "/></g></g></g><g fill="#050a30" fill-opacity="1"><g transform="translate(212.330515, 208.268614)"><g><path d="M 3.078125 0 C 2.679688 0 2.320312 -0.109375 2 -0.328125 C 1.675781 -0.546875 1.425781 -0.851562 1.25 -1.25 C 1.070312 -1.644531 0.984375 -2.09375 0.984375 -2.59375 L 0.984375 -10.234375 C 0.984375 -10.441406 1.046875 -10.609375 1.171875 -10.734375 C 1.304688 -10.867188 1.476562 -10.9375 1.6875 -10.9375 C 1.882812 -10.9375 2.046875 -10.867188 2.171875 -10.734375 C 2.304688 -10.609375 2.375 -10.441406 2.375 -10.234375 L 2.375 -2.59375 C 2.375 -2.25 2.4375 -1.960938 2.5625 -1.734375 C 2.695312 -1.515625 2.867188 -1.40625 3.078125 -1.40625 L 3.4375 -1.40625 C 3.613281 -1.40625 3.757812 -1.335938 3.875 -1.203125 C 4 -1.078125 4.0625 -0.910156 4.0625 -0.703125 C 4.0625 -0.492188 3.972656 -0.320312 3.796875 -0.1875 C 3.617188 -0.0625 3.390625 0 3.109375 0 Z M 3.078125 0 "/></g></g></g><g fill="#050a30" fill-opacity="1"><g transform="translate(216.794174, 208.268614)"><g/></g></g><g fill="#050a30" fill-opacity="1"><g transform="translate(221.159883, 208.268614)"><g><path d="M 9.578125 -1.015625 C 9.617188 -0.898438 9.640625 -0.800781 9.640625 -0.71875 C 9.640625 -0.519531 9.566406 -0.347656 9.421875 -0.203125 C 9.285156 -0.0664062 9.117188 0 8.921875 0 C 8.773438 0 8.640625 -0.0351562 8.515625 -0.109375 C 8.390625 -0.191406 8.300781 -0.304688 8.25 -0.453125 L 7.46875 -2.40625 L 2.4375 -2.40625 L 1.640625 -0.453125 C 1.578125 -0.304688 1.484375 -0.191406 1.359375 -0.109375 C 1.234375 -0.0351562 1.101562 0 0.96875 0 C 0.757812 0 0.585938 -0.0703125 0.453125 -0.21875 C 0.316406 -0.363281 0.25 -0.535156 0.25 -0.734375 C 0.25 -0.828125 0.273438 -0.929688 0.328125 -1.046875 L 4.25 -10.4375 C 4.394531 -10.769531 4.625 -10.9375 4.9375 -10.9375 C 5.28125 -10.9375 5.507812 -10.769531 5.625 -10.4375 Z M 2.921875 -3.609375 L 6.96875 -3.609375 L 4.96875 -8.59375 Z M 2.921875 -3.609375 "/></g></g></g><g fill="#050a30" fill-opacity="1"><g transform="translate(231.262389, 208.268614)"><g><path d="M 1.671875 0.21875 C 1.410156 0.21875 1.179688 0.125 0.984375 -0.0625 C 0.796875 -0.25 0.703125 -0.472656 0.703125 -0.734375 C 0.703125 -1.003906 0.796875 -1.234375 0.984375 -1.421875 C 1.179688 -1.617188 1.410156 -1.71875 1.671875 -1.71875 C 1.929688 -1.71875 2.15625 -1.617188 2.34375 -1.421875 C 2.53125 -1.234375 2.625 -1.003906 2.625 -0.734375 C 2.625 -0.472656 2.53125 -0.25 2.34375 -0.0625 C 2.164062 0.125 1.941406 0.21875 1.671875 0.21875 Z M 1.671875 0.21875 "/></g></g></g><g fill="#050a30" fill-opacity="1"><g transform="translate(234.858529, 208.268614)"><g><path d="M 2.125 0 C 1.914062 0 1.742188 -0.0664062 1.609375 -0.203125 C 1.472656 -0.347656 1.40625 -0.523438 1.40625 -0.734375 L 1.40625 -10.203125 C 1.40625 -10.421875 1.472656 -10.597656 1.609375 -10.734375 C 1.742188 -10.867188 1.914062 -10.9375 2.125 -10.9375 C 2.34375 -10.9375 2.519531 -10.867188 2.65625 -10.734375 C 2.789062 -10.597656 2.859375 -10.421875 2.859375 -10.203125 L 2.859375 -0.734375 C 2.859375 -0.523438 2.789062 -0.347656 2.65625 -0.203125 C 2.519531 -0.0664062 2.34375 0 2.125 0 Z M 2.125 0 "/></g></g></g></svg>